<?xml version="1.0" encoding="UTF-8"?>
<svg width="752pt" height="752pt" version="1.1" viewBox="0 0 752 752" xmlns="http://www.w3.org/2000/svg">
 <g>
  <path d="m305.91 209.3c0 26.156-21.203 47.359-47.355 47.359-26.156 0-47.359-21.203-47.359-47.359s21.203-47.359 47.359-47.359c26.152 0 47.355 21.203 47.355 47.359"/>
  <path d="m319.64 292.65c-8.0508-15.156-23.68-24.625-41.203-24.625h-38.832c-17.051 0-33.152 9.4727-41.203 24.625l-44.988 83.348c-5.6836 10.418-1.4219 23.207 8.5234 28.414 3.3164 1.8945 6.6289 2.3672 9.9453 2.3672 7.5781 0 14.68-4.2617 18.469-11.367l26.52-49.254-20.836 216.91c-1.4219 13.734 8.5234 25.574 22.258 26.992h2.3672c12.312 0 23.207-9.4727 24.625-22.258l13.734-140.18 13.734 140.18c1.4219 12.785 11.84 22.258 24.625 22.258h2.3672c13.734-1.4219 23.68-13.262 22.258-26.992l-21.781-216.43 26.52 49.254c5.6836 10.418 18.469 14.207 28.414 8.5234 10.418-5.6836 14.207-18.469 8.5234-28.414z"/>
  <path d="m540.81 209.3c0 26.156-21.203 47.359-47.359 47.359s-47.359-21.203-47.359-47.359 21.203-47.359 47.359-47.359 47.359 21.203 47.359 47.359"/>
  <path d="m598.59 376-44.516-83.352c-8.0508-15.156-23.68-24.625-41.203-24.625h-38.832c-17.051 0-33.152 9.4727-41.203 24.625l-44.992 83.352c-5.6836 10.418-1.4219 23.207 8.5234 28.414 3.3164 1.8945 6.6289 2.3672 9.9453 2.3672 7.5781 0 14.68-4.2617 18.469-11.367l26.996-48.773-20.836 216.43c-1.4219 13.734 8.5234 25.574 22.258 26.992h2.3672c12.312 0 23.207-9.4727 24.625-22.258l13.734-140.18 13.734 140.18c1.4219 12.785 11.84 22.258 24.625 22.258h2.3672c13.734-1.4219 23.68-13.262 22.258-26.992l-20.836-216.43 26.52 49.254c5.6836 10.418 18.469 14.207 28.414 8.5234 9-5.6836 12.789-18.473 7.582-28.418z"/>
 </g>
</svg>
