<?xml version="1.0" encoding="UTF-8"?>
<svg width="752pt" height="752pt" version="1.1" viewBox="0 0 752 752" xmlns="http://www.w3.org/2000/svg">
 <g>
  <path d="m335.27 274.18-41.203 47.832c-4.2617 5.2109-10.891 8.0508-17.523 8.0508h-35.992c-6.6289 0-13.262-2.8398-17.523-8.0508l-41.672-47.832c-6.1562-7.1055-17.051-8.0508-24.625-1.8945-7.1055 6.1562-8.0508 17.051-1.8945 24.625l56.355 64.883v143.5c0 9.4727 7.5781 17.523 17.523 17.523 9.4727 0 17.523-7.5781 17.523-17.523l-0.003907-69.617c0-2.3672 1.8945-4.7344 4.7344-4.7344h15.629c2.3672 0 4.7344 1.8945 4.7344 4.7344v69.617c0 9.4727 7.5781 17.523 17.523 17.523 9.4727 0 17.523-7.5781 17.523-17.523l0.003907-143.5 55.406-65.352c6.1562-7.1055 5.2109-18.469-1.8945-24.625-7.1016-6.1602-17.996-5.2109-24.625 2.3633z"/>
  <path d="m300.7 271.81c0 23.277-18.871 42.148-42.148 42.148-23.281 0-42.148-18.871-42.148-42.148s18.867-42.148 42.148-42.148c23.277 0 42.148 18.871 42.148 42.148"/>
  <path d="m596.69 296.44c6.1562-7.1055 5.2109-18.469-1.8945-24.625s-18.469-5.2109-24.625 1.8945l-41.203 48.305c-4.2617 5.2109-10.891 8.0508-17.523 8.0508l-35.992-0.003906c-6.6289 0-13.262-2.8398-17.523-8.0508l-41.203-48.305c-6.1562-7.1055-17.051-8.0508-24.625-1.8945-7.1055 6.1562-8.0508 17.051-1.8945 24.625l59.199 68.668 0.47266 0.47266-22.258 67.25c-2.8398 8.0508 3.3164 16.574 11.84 16.574h10.418l-6.1562 53.516c-0.94531 9.4727 5.6836 17.996 15.156 19.418 9.4727 0.94531 17.996-5.6836 19.418-15.156l6.1562-55.406c0-0.94531 0.94531-1.8945 2.3672-1.8945h13.262c0.94531 0 2.3672 0.94531 2.3672 1.8945l6.1562 55.41c0.94531 8.9961 8.5234 15.156 17.051 15.156h1.8945c9.4727-0.94531 16.574-9.9453 15.156-19.418l-5.6875-53.516h10.418c8.5234 0 14.68-8.5234 11.84-16.574l-22.258-67.25 0.47266-0.47266z"/>
  <path d="m535.6 271.81c0 23.277-18.871 42.148-42.148 42.148-23.277 0-42.148-18.871-42.148-42.148s18.871-42.148 42.148-42.148c23.277 0 42.148 18.871 42.148 42.148"/>
 </g>
</svg>
