<?xml version="1.0" encoding="utf-8"?>
<!-- Generator: Adobe Illustrator 26.0.2, SVG Export Plug-In . SVG Version: 6.00 Build 0)  -->
<svg version="1.1" id="Capa_1" xmlns="http://www.w3.org/2000/svg" xmlns:xlink="http://www.w3.org/1999/xlink" x="0px" y="0px"
	 viewBox="0 0 752 752" style="enable-background:new 0 0 752 752;" xml:space="preserve">
<g>
	<g>
		<path d="M270.9,267.4c15,0,29.3-7.6,37.7-20.1c8.5-12.6,10-29.2,4-43.1c-5.9-13.6-18.4-23.8-32.9-26.6c-14.9-2.9-30.6,2-41.2,12.8
			c-10.6,10.9-15.1,26.7-11.8,41.5c3.2,14.5,13.6,26.7,27.4,32.3C259.4,266.3,265.2,267.4,270.9,267.4z"/>
		<g>
			<path d="M323.2,379.6C324.2,376.8,323.1,378.9,323.2,379.6L323.2,379.6z"/>
			<path d="M355.2,365.4c0.7-6.8,0.9-13.6,1-20.4c-0.2-6.1-0.3-12.2-1.2-18.2c-1.2-9.4-3.4-18.7-6.9-27.5l-1.4-3.5
				c-1.6-3.4-3.4-6.8-5.2-10.1c-3.9-6.4-8.5-12.3-13.9-17.6c-1.8-1.6-3.5-3.3-5.3-4.7c-1.8-1.5-3.6-2.8-5.4-4c-2.3-1.5-4.6-3-7-4.3
				c-11.9,13-30,19.3-47.4,16.3c-11.5-2-22.1-7.8-29.9-16.5c-0.6,0.3-1.3,0.7-1.9,1.1c-1.8,1-3.5,2.2-5.3,3.3
				c-1.8,1.3-3.6,2.6-5.4,4c-1.8,1.4-3.5,3-5.3,4.7c-5.4,5.3-10,11.2-13.9,17.6c-1.9,3.3-3.6,6.7-5.2,10.1l-1.4,3.5
				c-3.5,8.8-5.7,18.1-6.9,27.5c-1,6-1,12.2-1.2,18.2c0.1,5.4,0.3,10.7,0.6,16c0.2,3.9,0.8,7.7,1.2,11.5c0.8,7,7.1,12.4,14.2,12
				c7.1-0.4,12.7-6.5,12.6-13.6l0-0.6c0-3.2-0.2-6.4,0-9.6c0.2-4.7,0.5-9.4,0.9-14.1c0.6-4.8,1.2-9.7,2.5-14.4
				c1.5-6.6,3.7-13.2,6.9-19.2l1.2-2.2l1.3-2.1c0.8-1.4,1.8-2.6,2.7-3.9c0.1-0.1,0.1-0.2,0.2-0.3l-10.5,73.2
				c-1.8,12.7,1.1,25.8,8.3,36.4l6.9,146.3c0.4,7.7,6.6,14.2,14.3,14.9c7.6,0.7,14.8-4.4,16.6-11.8c0.3-1,0.4-2.1,0.5-3.2l5-111.2
				l5.2,111.2c0.4,7.7,6.6,14.2,14.3,14.9c7.6,0.7,14.8-4.4,16.6-11.7c0.3-1,0.4-2.1,0.5-3.2l6.6-145.5c4.7-6.7,7.8-14.6,8.9-23
				c2.1,3,6.4,3.9,9.5,1.9c1.4-0.9,2.4-2.3,2.9-3.9c0.3-0.9,0.3-1.7,0.3-2.6c0.1-1.2,0.3-2.3,0.8-3.4c5.5,1.9,11.6,0.1,15.2-4.5
				c2.7,1.8,4.5,5,4.5,8.5v175.7c0,3.8,3.2,7,7,7s7-3.2,7-7V387.8C370.2,377.7,363.9,369,355.2,365.4z M327.6,372
				c-1.9,2.2-3.4,4.8-4.4,7.6c-0.1-0.7-0.1-1.3-0.2-2l-10.4-72.4c0.8,1.1,1.6,2.2,2.4,3.5l1.3,2.1l1.2,2.2c3.2,6,5.4,12.6,6.9,19.2
				c1.3,4.7,1.8,9.6,2.5,14.4c0.4,4.7,0.7,9.4,0.9,14.1c0.1,3.2,0,6.4,0,9.6l0,0.7C327.5,371.4,327.6,371.7,327.6,372z"/>
		</g>
		<path d="M463.2,267.4c15,0,29.3-7.6,37.7-20.1c8.5-12.6,10-29.2,4-43.1c-5.9-13.6-18.4-23.8-32.9-26.6c-14.9-2.9-30.6,2-41.2,12.8
			c-10.6,10.9-15.1,26.7-11.8,41.5c3.2,14.5,13.6,26.7,27.4,32.3C451.7,266.3,457.4,267.4,463.2,267.4z"/>
		<g>
			<path d="M547.5,364.8c0.7-6.6,0.8-13.2,0.9-19.8c-0.2-6.1-0.3-12.2-1.2-18.2c-1.2-9.4-3.4-18.7-6.9-27.5l-1.4-3.5
				c-1.6-3.4-3.4-6.8-5.2-10.1c-3.9-6.4-8.5-12.3-13.9-17.6c-1.8-1.6-3.5-3.3-5.3-4.7c-1.8-1.5-3.6-2.8-5.4-4c-2.3-1.5-4.6-3-7-4.3
				c-11.9,13-30,19.3-47.4,16.3c-11.5-2-22.1-7.8-29.9-16.5c-0.6,0.3-1.3,0.7-1.9,1.1c-1.8,1-3.5,2.2-5.3,3.3
				c-1.8,1.3-3.6,2.6-5.4,4c-1.8,1.4-3.5,3-5.3,4.7c-5.4,5.3-10,11.2-13.9,17.6c-1.9,3.3-3.6,6.7-5.2,10.1l-1.4,3.5
				c-3.5,8.8-5.7,18.1-6.9,27.5c-1,6-1,12.2-1.2,18.2c0.1,5.4,0.3,10.7,0.6,16c0.2,3.9,0.8,7.7,1.2,11.5c0.8,7,7.1,12.4,14.2,12
				c7.1-0.4,12.7-6.5,12.6-13.6l0-0.6c0-3.2-0.2-6.4,0-9.6c0.2-4.7,0.5-9.4,0.9-14.1c0.6-4.8,1.2-9.7,2.5-14.4
				c1.5-6.6,3.7-13.2,6.9-19.2l1.2-2.2l1.3-2.1c0.8-1.4,1.8-2.6,2.7-3.9c0.1-0.1,0.1-0.2,0.2-0.3l-10.5,73.2c-0.3,2-0.4,4.1-0.5,6.3
				c-5.6,17.6-10.3,35.4-13.9,53.5c-4.1,20.7-6.6,41.7-6.9,62.7c0,2.7-0.1,5.2,1.6,7.5c1.5,2,3.9,3.2,6.4,3.2h26.6l2.3,49.6
				c0.4,7.7,6.6,14.2,14.3,14.9c7.6,0.7,14.8-4.4,16.6-11.8c0.3-1,0.4-2.1,0.5-3.2l2.2-49.5h5.6l2.3,49.5
				c0.4,7.7,6.6,14.2,14.3,14.9c7.6,0.7,14.8-4.4,16.6-11.7c0.3-1,0.4-2.1,0.5-3.2l2.3-49.5h26.4c2.2,0,4.4-0.9,5.9-2.6
				c1.6-1.7,2.2-3.9,2.2-6.1c0-5.4-0.2-10.8-0.5-16.1c-0.6-10.6-1.8-21.1-3.4-31.6c-2.9-19.3-7.3-38.3-12.7-57
				c-0.6-1.9-1.1-3.8-1.7-5.7c1.7,3.5,6,4.9,9.5,3.1c1.5-0.8,2.7-2.2,3.3-3.8c0.3-0.9,0.4-1.8,0.4-2.7c0-1.2,0.3-2.5,0.8-3.6
				c4.9,0.2,9.3-2.2,11.9-6c4.5,1.1,7.8,5.1,7.8,9.9v175.7c0,3.8,3.2,7,7,7c3.8,0,7-3.2,7-7V388.4
				C566.3,376.9,558.2,367.3,547.5,364.8z M518.6,382.6c-0.5,2.1-0.9,4.6-0.6,6.8c-0.8-2.5-1.5-4.9-2.3-7.2c-0.1-1.5-0.2-3-0.4-4.6
				l-10.4-72.4c0.8,1.1,1.7,2.2,2.4,3.5l1.3,2.1l1.2,2.2c3.2,6,5.4,12.6,6.9,19.2c1.3,4.7,1.8,9.6,2.5,14.4
				c0.4,4.7,0.7,9.4,0.9,14.1c0.1,3.2,0,6.4,0,9.6l0,0.7c0,1.9,0.4,3.8,1.2,5.5C519.9,378.4,519.1,380.5,518.6,382.6z"/>
			<path d="M517.9,389.4C517.9,389.1,517.2,386.9,517.9,389.4L517.9,389.4z"/>
		</g>
	</g>
</g>
</svg>
